<svg id="Layer_1" data-name="Layer 1" xmlns="http://www.w3.org/2000/svg" viewBox="0 0 2000 2000" fill="#fff"><path d="M434.45,1294.7c-.61,0-1.23,0-1.85-.08a21,21,0,0,1-19.1-22.75L431,1071.71a21,21,0,0,1,41.84,3.65l-17.47,200.16A21,21,0,0,1,434.45,1294.7Z"/><path d="M1310.8,765.43c-.61,0-1.23,0-1.85-.08a21,21,0,0,1-19.09-22.75L1304.05,580h-788l-9.6,110a21,21,0,0,1-41.84-3.65l11.27-129.21A21,21,0,0,1,496.81,538H1327a21,21,0,0,1,20.92,22.83l-16.18,185.4A21,21,0,0,1,1310.8,765.43Z"/><path d="M1690.51,1294.7c-.61,0-1.23,0-1.85-.09a21,21,0,0,1-19.09-22.74l19-217.84c6.76-77.47-17-150.14-66.94-204.61-49.63-54.16-119.38-84-196.38-84H1330l-44.53,510.09a21,21,0,0,1-41.84-3.65l46.2-529.27a21,21,0,0,1,20.92-19.17h114.48c44.85,0,87.66,8.79,127.24,26.12a297.12,297.12,0,0,1,162.92,178.11c13.89,41.23,18.94,85,15,130l-19,217.84A21,21,0,0,1,1690.51,1294.7Z"/><path d="M1366.28,1078.83a21,21,0,0,1-20.92-22.82l20.13-230.55a21,21,0,0,1,20.92-19.17H1418c67,0,127.86,26.21,171.29,73.79s64.09,110.63,58.24,177.6a21,21,0,0,1-20.76,19.18l-260.36,2Zm39.37-230.54-16.44,188.37,217.32-1.65c-.15-47.93-16.94-92.33-48.24-126.62-35.37-38.75-85.19-60.1-140.26-60.1Z"/><path d="M1702.75,1370.3h-108a21,21,0,0,1,0-42h108a20,20,0,0,0,13.47-5.52,20.3,20.3,0,0,0,6.71-13.11,13.89,13.89,0,0,0-3.34-10.77,13.37,13.37,0,0,0-10.24-4.21H1601.4a21,21,0,0,1,0-42h107.95a55.09,55.09,0,0,1,55.42,60.64,63.06,63.06,0,0,1-62,57Z"/><path d="M1347.08,1370.3H823.82a21,21,0,1,1,0-42h523.26a21,21,0,0,1,0,42Z"/><path d="M1353.68,1294.69H830.42a21,21,0,0,1,0-42h523.26a21,21,0,0,1,0,42Z"/><path d="M576.09,1370.3H409a55.08,55.08,0,0,1-55.42-60.63,63.08,63.08,0,0,1,62-57H582.69a21,21,0,0,1,0,42H415.56a20,20,0,0,0-13.47,5.52,20.41,20.41,0,0,0-6.71,13.12,13.86,13.86,0,0,0,3.35,10.76A13.35,13.35,0,0,0,409,1328.3H576.09a21,21,0,0,1,0,42Z"/><path d="M692,1462c-40.45,0-77.23-15.83-103.56-44.56s-39.08-67.13-35.53-107.74c3.47-39.81,22.16-77.17,52.61-105.17S674.69,1161,714.56,1161c40.44,0,77.22,15.83,103.56,44.56s39.07,67.12,35.52,107.74c-3.47,39.81-22.16,77.16-52.61,105.17S731.82,1462,692,1462ZM714.56,1203c-60.78,0-114.54,49.48-119.85,110.3-2.51,28.73,6.24,55.62,24.65,75.7S663.42,1420,692,1420c60.77,0,114.53-49.48,119.84-110.3,2.51-28.74-6.24-55.62-24.65-75.7S743.09,1203,714.56,1203Z"/><path d="M699.55,1375a59.29,59.29,0,0,1-59.68-65.29A68.25,68.25,0,0,1,707,1248a59.29,59.29,0,0,1,59.68,65.3h0A68.25,68.25,0,0,1,699.55,1375ZM707,1290c-12.58,0-24.15,10.67-25.25,23.3a18.16,18.16,0,0,0,4.43,14.06,17.83,17.83,0,0,0,13.41,5.57c12.59,0,24.15-10.66,25.25-23.29a18.14,18.14,0,0,0-4.43-14.07A17.86,17.86,0,0,0,707,1290Zm38.76,21.47h0Z"/><path d="M1470.53,1375a59.29,59.29,0,0,1-59.68-65.29,68.27,68.27,0,0,1,67.09-61.64,59.29,59.29,0,0,1,59.68,65.3,68.25,68.25,0,0,1-67.09,61.63Zm7.41-84.93c-12.58,0-24.15,10.67-25.25,23.3a18.16,18.16,0,0,0,4.43,14.06,17.86,17.86,0,0,0,13.41,5.57c12.59,0,24.15-10.66,25.25-23.29a18.14,18.14,0,0,0-4.43-14.07A17.86,17.86,0,0,0,1477.94,1290Z"/><path d="M1462.94,1462c-40.45,0-77.23-15.83-103.56-44.56s-39.07-67.13-35.53-107.74c3.48-39.81,22.16-77.17,52.61-105.17s69.22-43.47,109.08-43.47c40.45,0,77.22,15.83,103.56,44.56s39.07,67.12,35.53,107.74c-3.48,39.81-22.17,77.16-52.62,105.17S1502.8,1462,1462.94,1462Zm22.6-258.94c-60.78,0-114.54,49.48-119.85,110.3-2.51,28.74,6.25,55.62,24.65,75.7s44.07,30.94,72.6,30.94c60.77,0,114.54-49.48,119.84-110.3,2.51-28.74-6.24-55.62-24.65-75.7S1514.07,1203,1485.54,1203Z"/><path d="M633.79,709.24H278.42a21,21,0,0,1,0-42H633.79a21,21,0,0,1,0,42Z"/><path d="M821.15,709.24H715.77a21,21,0,0,1,0-42H821.15a21,21,0,0,1,0,42Z"/><path d="M463.94,837.67H339.71a21,21,0,1,1,0-42H463.94a21,21,0,0,1,0,42Z"/><path d="M882.44,837.67H545.92a21,21,0,0,1,0-42H882.44a21,21,0,0,1,0,42Z"/><path d="M349.63,966.11H256a21,21,0,0,1,0-42h93.63a21,21,0,0,1,0,42Z"/><path d="M798.73,966.11H431.6a21,21,0,0,1,0-42H798.73a21,21,0,0,1,0,42Z"/><path d="M587.8,1094.54H309a21,21,0,0,1,0-42H587.8a21,21,0,0,1,0,42Z"/><path d="M851.73,1094.54h-182a21,21,0,0,1,0-42h182a21,21,0,0,1,0,42Z"/></svg>