<?xml version="1.0" ?><!DOCTYPE svg  PUBLIC '-//W3C//DTD SVG 1.1//EN'  'http://www.w3.org/Graphics/SVG/1.1/DTD/svg11.dtd'><svg version="1.1" fill="#fff" viewBox="0 0 846.66 846.66" xml:space="preserve" xmlns="http://www.w3.org/2000/svg" xmlns:xlink="http://www.w3.org/1999/xlink"><g id="Layer_x0020_1"><path class="fil0" d="M51.57 95.21l56.95 0 0 -65.83c0,-11.45 9.29,-20.73 20.74,-20.73l457.2 0c5.04,0 9.66,1.8 13.25,4.79l207.36 147.8c5.67,4.03 8.69,10.39 8.69,16.84l0.06 552.64c0,11.45 -9.29,20.73 -20.73,20.73l-56.95 0 0 65.83c0,11.45 -9.29,20.73 -20.74,20.73l-665.83 0c-11.44,0 -20.73,-9.28 -20.73,-20.73l0 -701.34c0,-11.45 9.29,-20.73 20.73,-20.73zm98.42 0l358.79 0c5.03,0 9.65,1.8 13.25,4.79l206.09 146.89c6,3.63 10.02,10.23 10.02,17.75l0 445.35 36.21 0 0 -521.29 -194.42 -138.59 -429.94 0 0 45.1zm7.01 404.34c-27.27,0 -27.27,-41.47 0,-41.47l142.04 0c27.27,0 27.27,41.47 0,41.47l-142.04 0zm0 224.16c-27.27,0 -27.27,-41.47 0,-41.47l142.04 0c27.27,0 27.27,41.47 0,41.47l-142.04 0zm0 -149.44c-27.27,0 -27.27,-41.47 0,-41.47l142.04 0c27.27,0 27.27,41.47 0,41.47l-142.04 0zm0 74.72c-27.27,0 -27.27,-41.47 0,-41.47l142.04 0c27.27,0 27.27,41.47 0,41.47l-142.04 0zm358.64 -100.22l0 156.43c0,27.27 -41.47,27.27 -41.47,0l0 -156.43c-56.07,-9.95 -97.1,-58.91 -97.1,-116.01 0,-65.07 52.76,-117.83 117.84,-117.83 65.07,0 117.83,52.75 117.83,117.83 0,57.09 -41.02,106.06 -97.1,116.01zm-20.73 -192.38c-42.18,0 -76.37,34.19 -76.37,76.37 0,42.18 34.19,76.37 76.37,76.37 42.17,0 76.36,-34.19 76.36,-76.37 0,-42.18 -34.19,-76.37 -76.36,-76.37zm-339.02 -163.53l144.26 0c11.45,0 20.73,9.28 20.73,20.73l0 169.79c0,11.45 -9.28,20.73 -20.73,20.73l-144.26 0c-11.45,0 -20.74,-9.28 -20.74,-20.73l0 -169.79c0,-11.45 9.29,-20.73 20.74,-20.73zm123.53 41.46l-102.8 0 0 128.32 102.8 0 0 -128.32zm222.82 -97.65l-429.93 0 0 659.88 624.36 0 0 -521.29 -194.43 -138.59z"/></g></svg>